<?xml version="1.0" encoding="utf-8" standalone="no"?>
<!DOCTYPE svg PUBLIC "-//W3C//DTD SVG 1.1//EN"
  "http://www.w3.org/Graphics/SVG/1.1/DTD/svg11.dtd">
<svg xmlns:xlink="http://www.w3.org/1999/xlink" width="967.35274pt" height="415.652627pt" viewBox="0 0 967.35274 415.652627" xmlns="http://www.w3.org/2000/svg" version="1.1">
 <metadata>
  <rdf:RDF xmlns:dc="http://purl.org/dc/elements/1.1/" xmlns:cc="http://creativecommons.org/ns#" xmlns:rdf="http://www.w3.org/1999/02/22-rdf-syntax-ns#">
   <cc:Work>
    <dc:type rdf:resource="http://purl.org/dc/dcmitype/StillImage"/>
    <dc:date>2026-05-21T15:32:01.608994</dc:date>
    <dc:format>image/svg+xml</dc:format>
    <dc:creator>
     <cc:Agent>
      <dc:title>Matplotlib v3.10.9, https://matplotlib.org/</dc:title>
     </cc:Agent>
    </dc:creator>
   </cc:Work>
  </rdf:RDF>
 </metadata>
 <defs>
  <style type="text/css">*{stroke-linejoin: round; stroke-linecap: butt}</style>
 </defs>
 <g id="figure_1">
  <g id="patch_1">
   <path d="M 0 415.652627 
L 967.35274 415.652627 
L 967.35274 0 
L 0 0 
z
" style="fill: #ffffff"/>
  </g>
  <g id="axes_1">
   <g id="patch_2">
    <path d="M 58.406875 335.52 
L 956.966875 335.52 
L 956.966875 7.2 
L 58.406875 7.2 
z
" style="fill: #ffffff"/>
   </g>
   <g id="matplotlib.axis_1">
    <g id="xtick_1">
     <g id="line2d_1"/>
     <g id="text_1">
      <!-- Fibroblasts -->
      <g style="fill: #333333" transform="translate(74.617903 382.467256) rotate(-25) scale(0.16 -0.16)">
       <defs>
        <path id="ArialMT-46" d="M 525 0 
L 525 4581 
L 3616 4581 
L 3616 4041 
L 1131 4041 
L 1131 2622 
L 3281 2622 
L 3281 2081 
L 1131 2081 
L 1131 0 
L 525 0 
z
" transform="scale(0.015625)"/>
        <path id="ArialMT-69" d="M 425 3934 
L 425 4581 
L 988 4581 
L 988 3934 
L 425 3934 
z
M 425 0 
L 425 3319 
L 988 3319 
L 988 0 
L 425 0 
z
" transform="scale(0.015625)"/>
        <path id="ArialMT-62" d="M 941 0 
L 419 0 
L 419 4581 
L 981 4581 
L 981 2947 
Q 1338 3394 1891 3394 
Q 2197 3394 2470 3270 
Q 2744 3147 2920 2923 
Q 3097 2700 3197 2384 
Q 3297 2069 3297 1709 
Q 3297 856 2875 390 
Q 2453 -75 1863 -75 
Q 1275 -75 941 416 
L 941 0 
z
M 934 1684 
Q 934 1088 1097 822 
Q 1363 388 1816 388 
Q 2184 388 2453 708 
Q 2722 1028 2722 1663 
Q 2722 2313 2464 2622 
Q 2206 2931 1841 2931 
Q 1472 2931 1203 2611 
Q 934 2291 934 1684 
z
" transform="scale(0.015625)"/>
        <path id="ArialMT-72" d="M 416 0 
L 416 3319 
L 922 3319 
L 922 2816 
Q 1116 3169 1280 3281 
Q 1444 3394 1641 3394 
Q 1925 3394 2219 3213 
L 2025 2691 
Q 1819 2813 1613 2813 
Q 1428 2813 1281 2702 
Q 1134 2591 1072 2394 
Q 978 2094 978 1738 
L 978 0 
L 416 0 
z
" transform="scale(0.015625)"/>
        <path id="ArialMT-6f" d="M 213 1659 
Q 213 2581 725 3025 
Q 1153 3394 1769 3394 
Q 2453 3394 2887 2945 
Q 3322 2497 3322 1706 
Q 3322 1066 3130 698 
Q 2938 331 2570 128 
Q 2203 -75 1769 -75 
Q 1072 -75 642 372 
Q 213 819 213 1659 
z
M 791 1659 
Q 791 1022 1069 705 
Q 1347 388 1769 388 
Q 2188 388 2466 706 
Q 2744 1025 2744 1678 
Q 2744 2294 2464 2611 
Q 2184 2928 1769 2928 
Q 1347 2928 1069 2612 
Q 791 2297 791 1659 
z
" transform="scale(0.015625)"/>
        <path id="ArialMT-6c" d="M 409 0 
L 409 4581 
L 972 4581 
L 972 0 
L 409 0 
z
" transform="scale(0.015625)"/>
        <path id="ArialMT-61" d="M 2588 409 
Q 2275 144 1986 34 
Q 1697 -75 1366 -75 
Q 819 -75 525 192 
Q 231 459 231 875 
Q 231 1119 342 1320 
Q 453 1522 633 1644 
Q 813 1766 1038 1828 
Q 1203 1872 1538 1913 
Q 2219 1994 2541 2106 
Q 2544 2222 2544 2253 
Q 2544 2597 2384 2738 
Q 2169 2928 1744 2928 
Q 1347 2928 1158 2789 
Q 969 2650 878 2297 
L 328 2372 
Q 403 2725 575 2942 
Q 747 3159 1072 3276 
Q 1397 3394 1825 3394 
Q 2250 3394 2515 3294 
Q 2781 3194 2906 3042 
Q 3031 2891 3081 2659 
Q 3109 2516 3109 2141 
L 3109 1391 
Q 3109 606 3145 398 
Q 3181 191 3288 0 
L 2700 0 
Q 2613 175 2588 409 
z
M 2541 1666 
Q 2234 1541 1622 1453 
Q 1275 1403 1131 1340 
Q 988 1278 909 1158 
Q 831 1038 831 891 
Q 831 666 1001 516 
Q 1172 366 1500 366 
Q 1825 366 2078 508 
Q 2331 650 2450 897 
Q 2541 1088 2541 1459 
L 2541 1666 
z
" transform="scale(0.015625)"/>
        <path id="ArialMT-73" d="M 197 991 
L 753 1078 
Q 800 744 1014 566 
Q 1228 388 1613 388 
Q 2000 388 2187 545 
Q 2375 703 2375 916 
Q 2375 1106 2209 1216 
Q 2094 1291 1634 1406 
Q 1016 1563 777 1677 
Q 538 1791 414 1992 
Q 291 2194 291 2438 
Q 291 2659 392 2848 
Q 494 3038 669 3163 
Q 800 3259 1026 3326 
Q 1253 3394 1513 3394 
Q 1903 3394 2198 3281 
Q 2494 3169 2634 2976 
Q 2775 2784 2828 2463 
L 2278 2388 
Q 2241 2644 2061 2787 
Q 1881 2931 1553 2931 
Q 1166 2931 1000 2803 
Q 834 2675 834 2503 
Q 834 2394 903 2306 
Q 972 2216 1119 2156 
Q 1203 2125 1616 2013 
Q 2213 1853 2448 1751 
Q 2684 1650 2818 1456 
Q 2953 1263 2953 975 
Q 2953 694 2789 445 
Q 2625 197 2315 61 
Q 2006 -75 1616 -75 
Q 969 -75 630 194 
Q 291 463 197 991 
z
" transform="scale(0.015625)"/>
        <path id="ArialMT-74" d="M 1650 503 
L 1731 6 
Q 1494 -44 1306 -44 
Q 1000 -44 831 53 
Q 663 150 594 308 
Q 525 466 525 972 
L 525 2881 
L 113 2881 
L 113 3319 
L 525 3319 
L 525 4141 
L 1084 4478 
L 1084 3319 
L 1650 3319 
L 1650 2881 
L 1084 2881 
L 1084 941 
Q 1084 700 1114 631 
Q 1144 563 1211 522 
Q 1278 481 1403 481 
Q 1497 481 1650 503 
z
" transform="scale(0.015625)"/>
       </defs>
       <use xlink:href="#ArialMT-46"/>
       <use xlink:href="#ArialMT-69" transform="translate(61.083984 0)"/>
       <use xlink:href="#ArialMT-62" transform="translate(83.300781 0)"/>
       <use xlink:href="#ArialMT-72" transform="translate(138.916016 0)"/>
       <use xlink:href="#ArialMT-6f" transform="translate(172.216797 0)"/>
       <use xlink:href="#ArialMT-62" transform="translate(227.832031 0)"/>
       <use xlink:href="#ArialMT-6c" transform="translate(283.447266 0)"/>
       <use xlink:href="#ArialMT-61" transform="translate(305.664062 0)"/>
       <use xlink:href="#ArialMT-73" transform="translate(361.279297 0)"/>
       <use xlink:href="#ArialMT-74" transform="translate(411.279297 0)"/>
       <use xlink:href="#ArialMT-73" transform="translate(439.0625 0)"/>
      </g>
     </g>
    </g>
    <g id="xtick_2">
     <g id="line2d_2"/>
     <g id="text_2">
      <!-- Mesothelial_Cells -->
      <g style="fill: #333333" transform="translate(153.137434 402.566211) rotate(-25) scale(0.16 -0.16)">
       <defs>
        <path id="ArialMT-4d" d="M 475 0 
L 475 4581 
L 1388 4581 
L 2472 1338 
Q 2622 884 2691 659 
Q 2769 909 2934 1394 
L 4031 4581 
L 4847 4581 
L 4847 0 
L 4263 0 
L 4263 3834 
L 2931 0 
L 2384 0 
L 1059 3900 
L 1059 0 
L 475 0 
z
" transform="scale(0.015625)"/>
        <path id="ArialMT-65" d="M 2694 1069 
L 3275 997 
Q 3138 488 2766 206 
Q 2394 -75 1816 -75 
Q 1088 -75 661 373 
Q 234 822 234 1631 
Q 234 2469 665 2931 
Q 1097 3394 1784 3394 
Q 2450 3394 2872 2941 
Q 3294 2488 3294 1666 
Q 3294 1616 3291 1516 
L 816 1516 
Q 847 969 1125 678 
Q 1403 388 1819 388 
Q 2128 388 2347 550 
Q 2566 713 2694 1069 
z
M 847 1978 
L 2700 1978 
Q 2663 2397 2488 2606 
Q 2219 2931 1791 2931 
Q 1403 2931 1139 2672 
Q 875 2413 847 1978 
z
" transform="scale(0.015625)"/>
        <path id="ArialMT-68" d="M 422 0 
L 422 4581 
L 984 4581 
L 984 2938 
Q 1378 3394 1978 3394 
Q 2347 3394 2619 3248 
Q 2891 3103 3008 2847 
Q 3125 2591 3125 2103 
L 3125 0 
L 2563 0 
L 2563 2103 
Q 2563 2525 2380 2717 
Q 2197 2909 1863 2909 
Q 1613 2909 1392 2779 
Q 1172 2650 1078 2428 
Q 984 2206 984 1816 
L 984 0 
L 422 0 
z
" transform="scale(0.015625)"/>
        <path id="ArialMT-5f" d="M -97 -1272 
L -97 -866 
L 3631 -866 
L 3631 -1272 
L -97 -1272 
z
" transform="scale(0.015625)"/>
        <path id="ArialMT-43" d="M 3763 1606 
L 4369 1453 
Q 4178 706 3683 314 
Q 3188 -78 2472 -78 
Q 1731 -78 1267 223 
Q 803 525 561 1097 
Q 319 1669 319 2325 
Q 319 3041 592 3573 
Q 866 4106 1370 4382 
Q 1875 4659 2481 4659 
Q 3169 4659 3637 4309 
Q 4106 3959 4291 3325 
L 3694 3184 
Q 3534 3684 3231 3912 
Q 2928 4141 2469 4141 
Q 1941 4141 1586 3887 
Q 1231 3634 1087 3207 
Q 944 2781 944 2328 
Q 944 1744 1114 1308 
Q 1284 872 1643 656 
Q 2003 441 2422 441 
Q 2931 441 3284 734 
Q 3638 1028 3763 1606 
z
" transform="scale(0.015625)"/>
       </defs>
       <use xlink:href="#ArialMT-4d"/>
       <use xlink:href="#ArialMT-65" transform="translate(83.300781 0)"/>
       <use xlink:href="#ArialMT-73" transform="translate(138.916016 0)"/>
       <use xlink:href="#ArialMT-6f" transform="translate(188.916016 0)"/>
       <use xlink:href="#ArialMT-74" transform="translate(244.53125 0)"/>
       <use xlink:href="#ArialMT-68" transform="translate(272.314453 0)"/>
       <use xlink:href="#ArialMT-65" transform="translate(327.929688 0)"/>
       <use xlink:href="#ArialMT-6c" transform="translate(383.544922 0)"/>
       <use xlink:href="#ArialMT-69" transform="translate(405.761719 0)"/>
       <use xlink:href="#ArialMT-61" transform="translate(427.978516 0)"/>
       <use xlink:href="#ArialMT-6c" transform="translate(483.59375 0)"/>
       <use xlink:href="#ArialMT-5f" transform="translate(505.810547 0)"/>
       <use xlink:href="#ArialMT-43" transform="translate(561.425781 0)"/>
       <use xlink:href="#ArialMT-65" transform="translate(633.642578 0)"/>
       <use xlink:href="#ArialMT-6c" transform="translate(689.257812 0)"/>
       <use xlink:href="#ArialMT-6c" transform="translate(711.474609 0)"/>
       <use xlink:href="#ArialMT-73" transform="translate(733.691406 0)"/>
      </g>
     </g>
    </g>
    <g id="xtick_3">
     <g id="line2d_3"/>
     <g id="text_3">
      <!-- Pericytes_SMCs -->
      <g style="fill: #333333" transform="translate(256.1722 399.549773) rotate(-25) scale(0.16 -0.16)">
       <defs>
        <path id="ArialMT-50" d="M 494 0 
L 494 4581 
L 2222 4581 
Q 2678 4581 2919 4538 
Q 3256 4481 3484 4323 
Q 3713 4166 3852 3881 
Q 3991 3597 3991 3256 
Q 3991 2672 3619 2267 
Q 3247 1863 2275 1863 
L 1100 1863 
L 1100 0 
L 494 0 
z
M 1100 2403 
L 2284 2403 
Q 2872 2403 3119 2622 
Q 3366 2841 3366 3238 
Q 3366 3525 3220 3729 
Q 3075 3934 2838 4000 
Q 2684 4041 2272 4041 
L 1100 4041 
L 1100 2403 
z
" transform="scale(0.015625)"/>
        <path id="ArialMT-63" d="M 2588 1216 
L 3141 1144 
Q 3050 572 2676 248 
Q 2303 -75 1759 -75 
Q 1078 -75 664 370 
Q 250 816 250 1647 
Q 250 2184 428 2587 
Q 606 2991 970 3192 
Q 1334 3394 1763 3394 
Q 2303 3394 2647 3120 
Q 2991 2847 3088 2344 
L 2541 2259 
Q 2463 2594 2264 2762 
Q 2066 2931 1784 2931 
Q 1359 2931 1093 2626 
Q 828 2322 828 1663 
Q 828 994 1084 691 
Q 1341 388 1753 388 
Q 2084 388 2306 591 
Q 2528 794 2588 1216 
z
" transform="scale(0.015625)"/>
        <path id="ArialMT-79" d="M 397 -1278 
L 334 -750 
Q 519 -800 656 -800 
Q 844 -800 956 -737 
Q 1069 -675 1141 -563 
Q 1194 -478 1313 -144 
Q 1328 -97 1363 -6 
L 103 3319 
L 709 3319 
L 1400 1397 
Q 1534 1031 1641 628 
Q 1738 1016 1872 1384 
L 2581 3319 
L 3144 3319 
L 1881 -56 
Q 1678 -603 1566 -809 
Q 1416 -1088 1222 -1217 
Q 1028 -1347 759 -1347 
Q 597 -1347 397 -1278 
z
" transform="scale(0.015625)"/>
        <path id="ArialMT-53" d="M 288 1472 
L 859 1522 
Q 900 1178 1048 958 
Q 1197 738 1509 602 
Q 1822 466 2213 466 
Q 2559 466 2825 569 
Q 3091 672 3220 851 
Q 3350 1031 3350 1244 
Q 3350 1459 3225 1620 
Q 3100 1781 2813 1891 
Q 2628 1963 1997 2114 
Q 1366 2266 1113 2400 
Q 784 2572 623 2826 
Q 463 3081 463 3397 
Q 463 3744 659 4045 
Q 856 4347 1234 4503 
Q 1613 4659 2075 4659 
Q 2584 4659 2973 4495 
Q 3363 4331 3572 4012 
Q 3781 3694 3797 3291 
L 3216 3247 
Q 3169 3681 2898 3903 
Q 2628 4125 2100 4125 
Q 1550 4125 1298 3923 
Q 1047 3722 1047 3438 
Q 1047 3191 1225 3031 
Q 1400 2872 2139 2705 
Q 2878 2538 3153 2413 
Q 3553 2228 3743 1945 
Q 3934 1663 3934 1294 
Q 3934 928 3725 604 
Q 3516 281 3123 101 
Q 2731 -78 2241 -78 
Q 1619 -78 1198 103 
Q 778 284 539 648 
Q 300 1013 288 1472 
z
" transform="scale(0.015625)"/>
       </defs>
       <use xlink:href="#ArialMT-50"/>
       <use xlink:href="#ArialMT-65" transform="translate(66.699219 0)"/>
       <use xlink:href="#ArialMT-72" transform="translate(122.314453 0)"/>
       <use xlink:href="#ArialMT-69" transform="translate(155.615234 0)"/>
       <use xlink:href="#ArialMT-63" transform="translate(177.832031 0)"/>
       <use xlink:href="#ArialMT-79" transform="translate(227.832031 0)"/>
       <use xlink:href="#ArialMT-74" transform="translate(277.832031 0)"/>
       <use xlink:href="#ArialMT-65" transform="translate(305.615234 0)"/>
       <use xlink:href="#ArialMT-73" transform="translate(361.230469 0)"/>
       <use xlink:href="#ArialMT-5f" transform="translate(411.230469 0)"/>
       <use xlink:href="#ArialMT-53" transform="translate(466.845703 0)"/>
       <use xlink:href="#ArialMT-4d" transform="translate(533.544922 0)"/>
       <use xlink:href="#ArialMT-43" transform="translate(616.845703 0)"/>
       <use xlink:href="#ArialMT-73" transform="translate(689.0625 0)"/>
      </g>
     </g>
    </g>
    <g id="xtick_4">
     <g id="line2d_4"/>
     <g id="text_4">
      <!-- Endothelial_Cells -->
      <g style="fill: #333333" transform="translate(353.613852 401.823459) rotate(-25) scale(0.16 -0.16)">
       <defs>
        <path id="ArialMT-45" d="M 506 0 
L 506 4581 
L 3819 4581 
L 3819 4041 
L 1113 4041 
L 1113 2638 
L 3647 2638 
L 3647 2100 
L 1113 2100 
L 1113 541 
L 3925 541 
L 3925 0 
L 506 0 
z
" transform="scale(0.015625)"/>
        <path id="ArialMT-6e" d="M 422 0 
L 422 3319 
L 928 3319 
L 928 2847 
Q 1294 3394 1984 3394 
Q 2284 3394 2536 3286 
Q 2788 3178 2913 3003 
Q 3038 2828 3088 2588 
Q 3119 2431 3119 2041 
L 3119 0 
L 2556 0 
L 2556 2019 
Q 2556 2363 2490 2533 
Q 2425 2703 2258 2804 
Q 2091 2906 1866 2906 
Q 1506 2906 1245 2678 
Q 984 2450 984 1813 
L 984 0 
L 422 0 
z
" transform="scale(0.015625)"/>
        <path id="ArialMT-64" d="M 2575 0 
L 2575 419 
Q 2259 -75 1647 -75 
Q 1250 -75 917 144 
Q 584 363 401 755 
Q 219 1147 219 1656 
Q 219 2153 384 2558 
Q 550 2963 881 3178 
Q 1213 3394 1622 3394 
Q 1922 3394 2156 3267 
Q 2391 3141 2538 2938 
L 2538 4581 
L 3097 4581 
L 3097 0 
L 2575 0 
z
M 797 1656 
Q 797 1019 1065 703 
Q 1334 388 1700 388 
Q 2069 388 2326 689 
Q 2584 991 2584 1609 
Q 2584 2291 2321 2609 
Q 2059 2928 1675 2928 
Q 1300 2928 1048 2622 
Q 797 2316 797 1656 
z
" transform="scale(0.015625)"/>
       </defs>
       <use xlink:href="#ArialMT-45"/>
       <use xlink:href="#ArialMT-6e" transform="translate(66.699219 0)"/>
       <use xlink:href="#ArialMT-64" transform="translate(122.314453 0)"/>
       <use xlink:href="#ArialMT-6f" transform="translate(177.929688 0)"/>
       <use xlink:href="#ArialMT-74" transform="translate(233.544922 0)"/>
       <use xlink:href="#ArialMT-68" transform="translate(261.328125 0)"/>
       <use xlink:href="#ArialMT-65" transform="translate(316.943359 0)"/>
       <use xlink:href="#ArialMT-6c" transform="translate(372.558594 0)"/>
       <use xlink:href="#ArialMT-69" transform="translate(394.775391 0)"/>
       <use xlink:href="#ArialMT-61" transform="translate(416.992188 0)"/>
       <use xlink:href="#ArialMT-6c" transform="translate(472.607422 0)"/>
       <use xlink:href="#ArialMT-5f" transform="translate(494.824219 0)"/>
       <use xlink:href="#ArialMT-43" transform="translate(550.439453 0)"/>
       <use xlink:href="#ArialMT-65" transform="translate(622.65625 0)"/>
       <use xlink:href="#ArialMT-6c" transform="translate(678.271484 0)"/>
       <use xlink:href="#ArialMT-6c" transform="translate(700.488281 0)"/>
       <use xlink:href="#ArialMT-73" transform="translate(722.705078 0)"/>
      </g>
     </g>
    </g>
    <g id="xtick_5">
     <g id="line2d_5"/>
     <g id="text_5">
      <!-- Unknown -->
      <g style="fill: #333333" transform="translate(479.209565 377.588128) rotate(-25) scale(0.16 -0.16)">
       <defs>
        <path id="ArialMT-55" d="M 3500 4581 
L 4106 4581 
L 4106 1934 
Q 4106 1244 3950 837 
Q 3794 431 3386 176 
Q 2978 -78 2316 -78 
Q 1672 -78 1262 144 
Q 853 366 678 786 
Q 503 1206 503 1934 
L 503 4581 
L 1109 4581 
L 1109 1938 
Q 1109 1341 1220 1058 
Q 1331 775 1601 622 
Q 1872 469 2263 469 
Q 2931 469 3215 772 
Q 3500 1075 3500 1938 
L 3500 4581 
z
" transform="scale(0.015625)"/>
        <path id="ArialMT-6b" d="M 425 0 
L 425 4581 
L 988 4581 
L 988 1969 
L 2319 3319 
L 3047 3319 
L 1778 2088 
L 3175 0 
L 2481 0 
L 1384 1697 
L 988 1316 
L 988 0 
L 425 0 
z
" transform="scale(0.015625)"/>
        <path id="ArialMT-77" d="M 1034 0 
L 19 3319 
L 600 3319 
L 1128 1403 
L 1325 691 
Q 1338 744 1497 1375 
L 2025 3319 
L 2603 3319 
L 3100 1394 
L 3266 759 
L 3456 1400 
L 4025 3319 
L 4572 3319 
L 3534 0 
L 2950 0 
L 2422 1988 
L 2294 2553 
L 1622 0 
L 1034 0 
z
" transform="scale(0.015625)"/>
       </defs>
       <use xlink:href="#ArialMT-55"/>
       <use xlink:href="#ArialMT-6e" transform="translate(72.216797 0)"/>
       <use xlink:href="#ArialMT-6b" transform="translate(127.832031 0)"/>
       <use xlink:href="#ArialMT-6e" transform="translate(177.832031 0)"/>
       <use xlink:href="#ArialMT-6f" transform="translate(233.447266 0)"/>
       <use xlink:href="#ArialMT-77" transform="translate(289.0625 0)"/>
       <use xlink:href="#ArialMT-6e" transform="translate(361.279297 0)"/>
      </g>
     </g>
    </g>
    <g id="xtick_6">
     <g id="line2d_6"/>
     <g id="text_6">
      <!-- Immune_Cells -->
      <g style="fill: #333333" transform="translate(562.980017 392.789994) rotate(-25) scale(0.16 -0.16)">
       <defs>
        <path id="ArialMT-49" d="M 597 0 
L 597 4581 
L 1203 4581 
L 1203 0 
L 597 0 
z
" transform="scale(0.015625)"/>
        <path id="ArialMT-6d" d="M 422 0 
L 422 3319 
L 925 3319 
L 925 2853 
Q 1081 3097 1340 3245 
Q 1600 3394 1931 3394 
Q 2300 3394 2536 3241 
Q 2772 3088 2869 2813 
Q 3263 3394 3894 3394 
Q 4388 3394 4653 3120 
Q 4919 2847 4919 2278 
L 4919 0 
L 4359 0 
L 4359 2091 
Q 4359 2428 4304 2576 
Q 4250 2725 4106 2815 
Q 3963 2906 3769 2906 
Q 3419 2906 3187 2673 
Q 2956 2441 2956 1928 
L 2956 0 
L 2394 0 
L 2394 2156 
Q 2394 2531 2256 2718 
Q 2119 2906 1806 2906 
Q 1569 2906 1367 2781 
Q 1166 2656 1075 2415 
Q 984 2175 984 1722 
L 984 0 
L 422 0 
z
" transform="scale(0.015625)"/>
        <path id="ArialMT-75" d="M 2597 0 
L 2597 488 
Q 2209 -75 1544 -75 
Q 1250 -75 995 37 
Q 741 150 617 320 
Q 494 491 444 738 
Q 409 903 409 1263 
L 409 3319 
L 972 3319 
L 972 1478 
Q 972 1038 1006 884 
Q 1059 663 1231 536 
Q 1403 409 1656 409 
Q 1909 409 2131 539 
Q 2353 669 2445 892 
Q 2538 1116 2538 1541 
L 2538 3319 
L 3100 3319 
L 3100 0 
L 2597 0 
z
" transform="scale(0.015625)"/>
       </defs>
       <use xlink:href="#ArialMT-49"/>
       <use xlink:href="#ArialMT-6d" transform="translate(27.783203 0)"/>
       <use xlink:href="#ArialMT-6d" transform="translate(111.083984 0)"/>
       <use xlink:href="#ArialMT-75" transform="translate(194.384766 0)"/>
       <use xlink:href="#ArialMT-6e" transform="translate(250 0)"/>
       <use xlink:href="#ArialMT-65" transform="translate(305.615234 0)"/>
       <use xlink:href="#ArialMT-5f" transform="translate(361.230469 0)"/>
       <use xlink:href="#ArialMT-43" transform="translate(416.845703 0)"/>
       <use xlink:href="#ArialMT-65" transform="translate(489.0625 0)"/>
       <use xlink:href="#ArialMT-6c" transform="translate(544.677734 0)"/>
       <use xlink:href="#ArialMT-6c" transform="translate(566.894531 0)"/>
       <use xlink:href="#ArialMT-73" transform="translate(589.111328 0)"/>
      </g>
     </g>
    </g>
    <g id="xtick_7">
     <g id="line2d_7"/>
     <g id="text_7">
      <!-- Adipocytes_White -->
      <g style="fill: #333333" transform="translate(651.045555 403.518928) rotate(-25) scale(0.16 -0.16)">
       <defs>
        <path id="ArialMT-41" d="M -9 0 
L 1750 4581 
L 2403 4581 
L 4278 0 
L 3588 0 
L 3053 1388 
L 1138 1388 
L 634 0 
L -9 0 
z
M 1313 1881 
L 2866 1881 
L 2388 3150 
Q 2169 3728 2063 4100 
Q 1975 3659 1816 3225 
L 1313 1881 
z
" transform="scale(0.015625)"/>
        <path id="ArialMT-70" d="M 422 -1272 
L 422 3319 
L 934 3319 
L 934 2888 
Q 1116 3141 1344 3267 
Q 1572 3394 1897 3394 
Q 2322 3394 2647 3175 
Q 2972 2956 3137 2557 
Q 3303 2159 3303 1684 
Q 3303 1175 3120 767 
Q 2938 359 2589 142 
Q 2241 -75 1856 -75 
Q 1575 -75 1351 44 
Q 1128 163 984 344 
L 984 -1272 
L 422 -1272 
z
M 931 1641 
Q 931 1000 1190 694 
Q 1450 388 1819 388 
Q 2194 388 2461 705 
Q 2728 1022 2728 1688 
Q 2728 2322 2467 2637 
Q 2206 2953 1844 2953 
Q 1484 2953 1207 2617 
Q 931 2281 931 1641 
z
" transform="scale(0.015625)"/>
        <path id="ArialMT-57" d="M 1294 0 
L 78 4581 
L 700 4581 
L 1397 1578 
Q 1509 1106 1591 641 
Q 1766 1375 1797 1488 
L 2669 4581 
L 3400 4581 
L 4056 2263 
Q 4303 1400 4413 641 
Q 4500 1075 4641 1638 
L 5359 4581 
L 5969 4581 
L 4713 0 
L 4128 0 
L 3163 3491 
Q 3041 3928 3019 4028 
Q 2947 3713 2884 3491 
L 1913 0 
L 1294 0 
z
" transform="scale(0.015625)"/>
       </defs>
       <use xlink:href="#ArialMT-41"/>
       <use xlink:href="#ArialMT-64" transform="translate(66.699219 0)"/>
       <use xlink:href="#ArialMT-69" transform="translate(122.314453 0)"/>
       <use xlink:href="#ArialMT-70" transform="translate(144.53125 0)"/>
       <use xlink:href="#ArialMT-6f" transform="translate(200.146484 0)"/>
       <use xlink:href="#ArialMT-63" transform="translate(255.761719 0)"/>
       <use xlink:href="#ArialMT-79" transform="translate(305.761719 0)"/>
       <use xlink:href="#ArialMT-74" transform="translate(355.761719 0)"/>
       <use xlink:href="#ArialMT-65" transform="translate(383.544922 0)"/>
       <use xlink:href="#ArialMT-73" transform="translate(439.160156 0)"/>
       <use xlink:href="#ArialMT-5f" transform="translate(489.160156 0)"/>
       <use xlink:href="#ArialMT-57" transform="translate(544.775391 0)"/>
       <use xlink:href="#ArialMT-68" transform="translate(639.160156 0)"/>
       <use xlink:href="#ArialMT-69" transform="translate(694.775391 0)"/>
       <use xlink:href="#ArialMT-74" transform="translate(716.992188 0)"/>
       <use xlink:href="#ArialMT-65" transform="translate(744.775391 0)"/>
      </g>
     </g>
    </g>
    <g id="xtick_8">
     <g id="line2d_8"/>
     <g id="text_8">
      <!-- Adipocytes_Brown -->
      <g style="fill: #333333" transform="translate(748.867887 405.400636) rotate(-25) scale(0.16 -0.16)">
       <defs>
        <path id="ArialMT-42" d="M 469 0 
L 469 4581 
L 2188 4581 
Q 2713 4581 3030 4442 
Q 3347 4303 3526 4014 
Q 3706 3725 3706 3409 
Q 3706 3116 3547 2856 
Q 3388 2597 3066 2438 
Q 3481 2316 3704 2022 
Q 3928 1728 3928 1328 
Q 3928 1006 3792 729 
Q 3656 453 3456 303 
Q 3256 153 2954 76 
Q 2653 0 2216 0 
L 469 0 
z
M 1075 2656 
L 2066 2656 
Q 2469 2656 2644 2709 
Q 2875 2778 2992 2937 
Q 3109 3097 3109 3338 
Q 3109 3566 3000 3739 
Q 2891 3913 2687 3977 
Q 2484 4041 1991 4041 
L 1075 4041 
L 1075 2656 
z
M 1075 541 
L 2216 541 
Q 2509 541 2628 563 
Q 2838 600 2978 687 
Q 3119 775 3209 942 
Q 3300 1109 3300 1328 
Q 3300 1584 3169 1773 
Q 3038 1963 2805 2039 
Q 2572 2116 2134 2116 
L 1075 2116 
L 1075 541 
z
" transform="scale(0.015625)"/>
       </defs>
       <use xlink:href="#ArialMT-41"/>
       <use xlink:href="#ArialMT-64" transform="translate(66.699219 0)"/>
       <use xlink:href="#ArialMT-69" transform="translate(122.314453 0)"/>
       <use xlink:href="#ArialMT-70" transform="translate(144.53125 0)"/>
       <use xlink:href="#ArialMT-6f" transform="translate(200.146484 0)"/>
       <use xlink:href="#ArialMT-63" transform="translate(255.761719 0)"/>
       <use xlink:href="#ArialMT-79" transform="translate(305.761719 0)"/>
       <use xlink:href="#ArialMT-74" transform="translate(355.761719 0)"/>
       <use xlink:href="#ArialMT-65" transform="translate(383.544922 0)"/>
       <use xlink:href="#ArialMT-73" transform="translate(439.160156 0)"/>
       <use xlink:href="#ArialMT-5f" transform="translate(489.160156 0)"/>
       <use xlink:href="#ArialMT-42" transform="translate(544.775391 0)"/>
       <use xlink:href="#ArialMT-72" transform="translate(611.474609 0)"/>
       <use xlink:href="#ArialMT-6f" transform="translate(644.775391 0)"/>
       <use xlink:href="#ArialMT-77" transform="translate(700.390625 0)"/>
       <use xlink:href="#ArialMT-6e" transform="translate(772.607422 0)"/>
      </g>
     </g>
    </g>
    <g id="xtick_9">
     <g id="line2d_9"/>
     <g id="text_9">
      <!-- Schwann_Cells -->
      <g style="fill: #333333" transform="translate(858.863457 396.181505) rotate(-25) scale(0.16 -0.16)">
       <use xlink:href="#ArialMT-53"/>
       <use xlink:href="#ArialMT-63" transform="translate(66.699219 0)"/>
       <use xlink:href="#ArialMT-68" transform="translate(116.699219 0)"/>
       <use xlink:href="#ArialMT-77" transform="translate(172.314453 0)"/>
       <use xlink:href="#ArialMT-61" transform="translate(244.53125 0)"/>
       <use xlink:href="#ArialMT-6e" transform="translate(300.146484 0)"/>
       <use xlink:href="#ArialMT-6e" transform="translate(355.761719 0)"/>
       <use xlink:href="#ArialMT-5f" transform="translate(411.376953 0)"/>
       <use xlink:href="#ArialMT-43" transform="translate(466.992188 0)"/>
       <use xlink:href="#ArialMT-65" transform="translate(539.208984 0)"/>
       <use xlink:href="#ArialMT-6c" transform="translate(594.824219 0)"/>
       <use xlink:href="#ArialMT-6c" transform="translate(617.041016 0)"/>
       <use xlink:href="#ArialMT-73" transform="translate(639.257812 0)"/>
      </g>
     </g>
    </g>
   </g>
   <g id="matplotlib.axis_2">
    <g id="ytick_1">
     <g id="line2d_10"/>
     <g id="text_10">
      <!-- 0.00 -->
      <g style="fill: #333333" transform="translate(27.661563 340.530469) scale(0.14 -0.14)">
       <defs>
        <path id="ArialMT-30" d="M 266 2259 
Q 266 3072 433 3567 
Q 600 4063 929 4331 
Q 1259 4600 1759 4600 
Q 2128 4600 2406 4451 
Q 2684 4303 2865 4023 
Q 3047 3744 3150 3342 
Q 3253 2941 3253 2259 
Q 3253 1453 3087 958 
Q 2922 463 2592 192 
Q 2263 -78 1759 -78 
Q 1097 -78 719 397 
Q 266 969 266 2259 
z
M 844 2259 
Q 844 1131 1108 757 
Q 1372 384 1759 384 
Q 2147 384 2411 759 
Q 2675 1134 2675 2259 
Q 2675 3391 2411 3762 
Q 2147 4134 1753 4134 
Q 1366 4134 1134 3806 
Q 844 3388 844 2259 
z
" transform="scale(0.015625)"/>
        <path id="ArialMT-2e" d="M 581 0 
L 581 641 
L 1222 641 
L 1222 0 
L 581 0 
z
" transform="scale(0.015625)"/>
       </defs>
       <use xlink:href="#ArialMT-30"/>
       <use xlink:href="#ArialMT-2e" transform="translate(55.615234 0)"/>
       <use xlink:href="#ArialMT-30" transform="translate(83.398438 0)"/>
       <use xlink:href="#ArialMT-30" transform="translate(139.013672 0)"/>
      </g>
     </g>
    </g>
    <g id="ytick_2">
     <g id="line2d_11"/>
     <g id="text_11">
      <!-- 0.05 -->
      <g style="fill: #333333" transform="translate(27.661563 298.800272) scale(0.14 -0.14)">
       <defs>
        <path id="ArialMT-35" d="M 266 1200 
L 856 1250 
Q 922 819 1161 601 
Q 1400 384 1738 384 
Q 2144 384 2425 690 
Q 2706 997 2706 1503 
Q 2706 1984 2436 2262 
Q 2166 2541 1728 2541 
Q 1456 2541 1237 2417 
Q 1019 2294 894 2097 
L 366 2166 
L 809 4519 
L 3088 4519 
L 3088 3981 
L 1259 3981 
L 1013 2750 
Q 1425 3038 1878 3038 
Q 2478 3038 2890 2622 
Q 3303 2206 3303 1553 
Q 3303 931 2941 478 
Q 2500 -78 1738 -78 
Q 1113 -78 717 272 
Q 322 622 266 1200 
z
" transform="scale(0.015625)"/>
       </defs>
       <use xlink:href="#ArialMT-30"/>
       <use xlink:href="#ArialMT-2e" transform="translate(55.615234 0)"/>
       <use xlink:href="#ArialMT-30" transform="translate(83.398438 0)"/>
       <use xlink:href="#ArialMT-35" transform="translate(139.013672 0)"/>
      </g>
     </g>
    </g>
    <g id="ytick_3">
     <g id="line2d_12"/>
     <g id="text_12">
      <!-- 0.10 -->
      <g style="fill: #333333" transform="translate(27.661563 257.070075) scale(0.14 -0.14)">
       <defs>
        <path id="ArialMT-31" d="M 2384 0 
L 1822 0 
L 1822 3584 
Q 1619 3391 1289 3197 
Q 959 3003 697 2906 
L 697 3450 
Q 1169 3672 1522 3987 
Q 1875 4303 2022 4600 
L 2384 4600 
L 2384 0 
z
" transform="scale(0.015625)"/>
       </defs>
       <use xlink:href="#ArialMT-30"/>
       <use xlink:href="#ArialMT-2e" transform="translate(55.615234 0)"/>
       <use xlink:href="#ArialMT-31" transform="translate(83.398438 0)"/>
       <use xlink:href="#ArialMT-30" transform="translate(139.013672 0)"/>
      </g>
     </g>
    </g>
    <g id="ytick_4">
     <g id="line2d_13"/>
     <g id="text_13">
      <!-- 0.15 -->
      <g style="fill: #333333" transform="translate(27.661563 215.339878) scale(0.14 -0.14)">
       <use xlink:href="#ArialMT-30"/>
       <use xlink:href="#ArialMT-2e" transform="translate(55.615234 0)"/>
       <use xlink:href="#ArialMT-31" transform="translate(83.398438 0)"/>
       <use xlink:href="#ArialMT-35" transform="translate(139.013672 0)"/>
      </g>
     </g>
    </g>
    <g id="ytick_5">
     <g id="line2d_14"/>
     <g id="text_14">
      <!-- 0.20 -->
      <g style="fill: #333333" transform="translate(27.661563 173.609681) scale(0.14 -0.14)">
       <defs>
        <path id="ArialMT-32" d="M 3222 541 
L 3222 0 
L 194 0 
Q 188 203 259 391 
Q 375 700 629 1000 
Q 884 1300 1366 1694 
Q 2113 2306 2375 2664 
Q 2638 3022 2638 3341 
Q 2638 3675 2398 3904 
Q 2159 4134 1775 4134 
Q 1369 4134 1125 3890 
Q 881 3647 878 3216 
L 300 3275 
Q 359 3922 746 4261 
Q 1134 4600 1788 4600 
Q 2447 4600 2831 4234 
Q 3216 3869 3216 3328 
Q 3216 3053 3103 2787 
Q 2991 2522 2730 2228 
Q 2469 1934 1863 1422 
Q 1356 997 1212 845 
Q 1069 694 975 541 
L 3222 541 
z
" transform="scale(0.015625)"/>
       </defs>
       <use xlink:href="#ArialMT-30"/>
       <use xlink:href="#ArialMT-2e" transform="translate(55.615234 0)"/>
       <use xlink:href="#ArialMT-32" transform="translate(83.398438 0)"/>
       <use xlink:href="#ArialMT-30" transform="translate(139.013672 0)"/>
      </g>
     </g>
    </g>
    <g id="ytick_6">
     <g id="line2d_15"/>
     <g id="text_15">
      <!-- 0.25 -->
      <g style="fill: #333333" transform="translate(27.661563 131.879484) scale(0.14 -0.14)">
       <use xlink:href="#ArialMT-30"/>
       <use xlink:href="#ArialMT-2e" transform="translate(55.615234 0)"/>
       <use xlink:href="#ArialMT-32" transform="translate(83.398438 0)"/>
       <use xlink:href="#ArialMT-35" transform="translate(139.013672 0)"/>
      </g>
     </g>
    </g>
    <g id="ytick_7">
     <g id="line2d_16"/>
     <g id="text_16">
      <!-- 0.30 -->
      <g style="fill: #333333" transform="translate(27.661563 90.149288) scale(0.14 -0.14)">
       <defs>
        <path id="ArialMT-33" d="M 269 1209 
L 831 1284 
Q 928 806 1161 595 
Q 1394 384 1728 384 
Q 2125 384 2398 659 
Q 2672 934 2672 1341 
Q 2672 1728 2419 1979 
Q 2166 2231 1775 2231 
Q 1616 2231 1378 2169 
L 1441 2663 
Q 1497 2656 1531 2656 
Q 1891 2656 2178 2843 
Q 2466 3031 2466 3422 
Q 2466 3731 2256 3934 
Q 2047 4138 1716 4138 
Q 1388 4138 1169 3931 
Q 950 3725 888 3313 
L 325 3413 
Q 428 3978 793 4289 
Q 1159 4600 1703 4600 
Q 2078 4600 2393 4439 
Q 2709 4278 2876 4000 
Q 3044 3722 3044 3409 
Q 3044 3113 2884 2869 
Q 2725 2625 2413 2481 
Q 2819 2388 3044 2092 
Q 3269 1797 3269 1353 
Q 3269 753 2831 336 
Q 2394 -81 1725 -81 
Q 1122 -81 723 278 
Q 325 638 269 1209 
z
" transform="scale(0.015625)"/>
       </defs>
       <use xlink:href="#ArialMT-30"/>
       <use xlink:href="#ArialMT-2e" transform="translate(55.615234 0)"/>
       <use xlink:href="#ArialMT-33" transform="translate(83.398438 0)"/>
       <use xlink:href="#ArialMT-30" transform="translate(139.013672 0)"/>
      </g>
     </g>
    </g>
    <g id="ytick_8">
     <g id="line2d_17"/>
     <g id="text_17">
      <!-- 0.35 -->
      <g style="fill: #333333" transform="translate(27.661563 48.419091) scale(0.14 -0.14)">
       <use xlink:href="#ArialMT-30"/>
       <use xlink:href="#ArialMT-2e" transform="translate(55.615234 0)"/>
       <use xlink:href="#ArialMT-33" transform="translate(83.398438 0)"/>
       <use xlink:href="#ArialMT-35" transform="translate(139.013672 0)"/>
      </g>
     </g>
    </g>
    <g id="text_18">
     <!-- Proportion -->
     <g style="fill: #333333" transform="translate(20.084063 212.880937) rotate(-90) scale(0.18 -0.18)">
      <use xlink:href="#ArialMT-50"/>
      <use xlink:href="#ArialMT-72" transform="translate(66.699219 0)"/>
      <use xlink:href="#ArialMT-6f" transform="translate(100 0)"/>
      <use xlink:href="#ArialMT-70" transform="translate(155.615234 0)"/>
      <use xlink:href="#ArialMT-6f" transform="translate(211.230469 0)"/>
      <use xlink:href="#ArialMT-72" transform="translate(266.845703 0)"/>
      <use xlink:href="#ArialMT-74" transform="translate(300.146484 0)"/>
      <use xlink:href="#ArialMT-69" transform="translate(327.929688 0)"/>
      <use xlink:href="#ArialMT-6f" transform="translate(350.146484 0)"/>
      <use xlink:href="#ArialMT-6e" transform="translate(405.761719 0)"/>
     </g>
    </g>
   </g>
   <g id="patch_3">
    <path d="M 68.390875 335.52 
L 95.014875 335.52 
L 95.014875 227.738331 
L 68.390875 227.738331 
z
" clip-path="url(#pc641c2cbf0)" style="fill: #6e5c99; stroke: #333333; stroke-width: 2.5; stroke-linejoin: miter"/>
   </g>
   <g id="patch_4">
    <path d="M 168.230875 335.52 
L 194.854875 335.52 
L 194.854875 122.515669 
L 168.230875 122.515669 
z
" clip-path="url(#pc641c2cbf0)" style="fill: #6e5c99; stroke: #333333; stroke-width: 2.5; stroke-linejoin: miter"/>
   </g>
   <g id="patch_5">
    <path d="M 268.070875 335.52 
L 294.694875 335.52 
L 294.694875 237.050051 
L 268.070875 237.050051 
z
" clip-path="url(#pc641c2cbf0)" style="fill: #6e5c99; stroke: #333333; stroke-width: 2.5; stroke-linejoin: miter"/>
   </g>
   <g id="patch_6">
    <path d="M 367.910875 335.52 
L 394.534875 335.52 
L 394.534875 229.297667 
L 367.910875 229.297667 
z
" clip-path="url(#pc641c2cbf0)" style="fill: #6e5c99; stroke: #333333; stroke-width: 2.5; stroke-linejoin: miter"/>
   </g>
   <g id="patch_7">
    <path d="M 467.750875 335.52 
L 494.374875 335.52 
L 494.374875 265.188619 
L 467.750875 265.188619 
z
" clip-path="url(#pc641c2cbf0)" style="fill: #6e5c99; stroke: #333333; stroke-width: 2.5; stroke-linejoin: miter"/>
   </g>
   <g id="patch_8">
    <path d="M 567.590875 335.52 
L 594.214875 335.52 
L 594.214875 270.440449 
L 567.590875 270.440449 
z
" clip-path="url(#pc641c2cbf0)" style="fill: #6e5c99; stroke: #333333; stroke-width: 2.5; stroke-linejoin: miter"/>
   </g>
   <g id="patch_9">
    <path d="M 667.430875 335.52 
L 694.054875 335.52 
L 694.054875 263.066133 
L 667.430875 263.066133 
z
" clip-path="url(#pc641c2cbf0)" style="fill: #6e5c99; stroke: #333333; stroke-width: 2.5; stroke-linejoin: miter"/>
   </g>
   <g id="patch_10">
    <path d="M 767.270875 335.52 
L 793.894875 335.52 
L 793.894875 273.402306 
L 767.270875 273.402306 
z
" clip-path="url(#pc641c2cbf0)" style="fill: #6e5c99; stroke: #333333; stroke-width: 2.5; stroke-linejoin: miter"/>
   </g>
   <g id="patch_11">
    <path d="M 867.110875 335.52 
L 893.734875 335.52 
L 893.734875 296.376839 
L 867.110875 296.376839 
z
" clip-path="url(#pc641c2cbf0)" style="fill: #6e5c99; stroke: #333333; stroke-width: 2.5; stroke-linejoin: miter"/>
   </g>
   <g id="patch_12">
    <path d="M 95.014875 335.52 
L 121.638875 335.52 
L 121.638875 152.366921 
L 95.014875 152.366921 
z
" clip-path="url(#pc641c2cbf0)" style="fill: #a3a0c3; stroke: #333333; stroke-width: 2.5; stroke-linejoin: miter"/>
   </g>
   <g id="patch_13">
    <path d="M 194.854875 335.52 
L 221.478875 335.52 
L 221.478875 139.458426 
L 194.854875 139.458426 
z
" clip-path="url(#pc641c2cbf0)" style="fill: #a3a0c3; stroke: #333333; stroke-width: 2.5; stroke-linejoin: miter"/>
   </g>
   <g id="patch_14">
    <path d="M 294.694875 335.52 
L 321.318875 335.52 
L 321.318875 242.929019 
L 294.694875 242.929019 
z
" clip-path="url(#pc641c2cbf0)" style="fill: #a3a0c3; stroke: #333333; stroke-width: 2.5; stroke-linejoin: miter"/>
   </g>
   <g id="patch_15">
    <path d="M 394.534875 335.52 
L 421.158875 335.52 
L 421.158875 246.397361 
L 394.534875 246.397361 
z
" clip-path="url(#pc641c2cbf0)" style="fill: #a3a0c3; stroke: #333333; stroke-width: 2.5; stroke-linejoin: miter"/>
   </g>
   <g id="patch_16">
    <path d="M 494.374875 335.52 
L 520.998875 335.52 
L 520.998875 223.933761 
L 494.374875 223.933761 
z
" clip-path="url(#pc641c2cbf0)" style="fill: #a3a0c3; stroke: #333333; stroke-width: 2.5; stroke-linejoin: miter"/>
   </g>
   <g id="patch_17">
    <path d="M 594.214875 335.52 
L 620.838875 335.52 
L 620.838875 282.986978 
L 594.214875 282.986978 
z
" clip-path="url(#pc641c2cbf0)" style="fill: #a3a0c3; stroke: #333333; stroke-width: 2.5; stroke-linejoin: miter"/>
   </g>
   <g id="patch_18">
    <path d="M 694.054875 335.52 
L 720.678875 335.52 
L 720.678875 291.305931 
L 694.054875 291.305931 
z
" clip-path="url(#pc641c2cbf0)" style="fill: #a3a0c3; stroke: #333333; stroke-width: 2.5; stroke-linejoin: miter"/>
   </g>
   <g id="patch_19">
    <path d="M 793.894875 335.52 
L 820.518875 335.52 
L 820.518875 308.736514 
L 793.894875 308.736514 
z
" clip-path="url(#pc641c2cbf0)" style="fill: #a3a0c3; stroke: #333333; stroke-width: 2.5; stroke-linejoin: miter"/>
   </g>
   <g id="patch_20">
    <path d="M 893.734875 335.52 
L 920.358875 335.52 
L 920.358875 296.961152 
L 893.734875 296.961152 
z
" clip-path="url(#pc641c2cbf0)" style="fill: #a3a0c3; stroke: #333333; stroke-width: 2.5; stroke-linejoin: miter"/>
   </g>
   <g id="patch_21">
    <path d="M 121.638875 335.52 
L 148.262875 335.52 
L 148.262875 114.837625 
L 121.638875 114.837625 
z
" clip-path="url(#pc641c2cbf0)" style="fill: #dddde9; stroke: #333333; stroke-width: 2.5; stroke-linejoin: miter"/>
   </g>
   <g id="patch_22">
    <path d="M 221.478875 335.52 
L 248.102875 335.52 
L 248.102875 246.894002 
L 221.478875 246.894002 
z
" clip-path="url(#pc641c2cbf0)" style="fill: #dddde9; stroke: #333333; stroke-width: 2.5; stroke-linejoin: miter"/>
   </g>
   <g id="patch_23">
    <path d="M 321.318875 335.52 
L 347.942875 335.52 
L 347.942875 213.555307 
L 321.318875 213.555307 
z
" clip-path="url(#pc641c2cbf0)" style="fill: #dddde9; stroke: #333333; stroke-width: 2.5; stroke-linejoin: miter"/>
   </g>
   <g id="patch_24">
    <path d="M 421.158875 335.52 
L 447.782875 335.52 
L 447.782875 232.562279 
L 421.158875 232.562279 
z
" clip-path="url(#pc641c2cbf0)" style="fill: #dddde9; stroke: #333333; stroke-width: 2.5; stroke-linejoin: miter"/>
   </g>
   <g id="patch_25">
    <path d="M 520.998875 335.52 
L 547.622875 335.52 
L 547.622875 252.625337 
L 520.998875 252.625337 
z
" clip-path="url(#pc641c2cbf0)" style="fill: #dddde9; stroke: #333333; stroke-width: 2.5; stroke-linejoin: miter"/>
   </g>
   <g id="patch_26">
    <path d="M 620.838875 335.52 
L 647.462875 335.52 
L 647.462875 260.494735 
L 620.838875 260.494735 
z
" clip-path="url(#pc641c2cbf0)" style="fill: #dddde9; stroke: #333333; stroke-width: 2.5; stroke-linejoin: miter"/>
   </g>
   <g id="patch_27">
    <path d="M 720.678875 335.52 
L 747.302875 335.52 
L 747.302875 283.62308 
L 720.678875 283.62308 
z
" clip-path="url(#pc641c2cbf0)" style="fill: #dddde9; stroke: #333333; stroke-width: 2.5; stroke-linejoin: miter"/>
   </g>
   <g id="patch_28">
    <path d="M 820.518875 335.52 
L 847.142875 335.52 
L 847.142875 290.990778 
L 820.518875 290.990778 
z
" clip-path="url(#pc641c2cbf0)" style="fill: #dddde9; stroke: #333333; stroke-width: 2.5; stroke-linejoin: miter"/>
   </g>
   <g id="patch_29">
    <path d="M 920.358875 335.52 
L 946.982875 335.52 
L 946.982875 289.49292 
L 920.358875 289.49292 
z
" clip-path="url(#pc641c2cbf0)" style="fill: #dddde9; stroke: #333333; stroke-width: 2.5; stroke-linejoin: miter"/>
   </g>
   <g id="patch_30">
    <path d="M 108.326875 335.52 
L 108.326875 335.52 
L 108.326875 335.52 
L 108.326875 335.52 
z
" clip-path="url(#pc641c2cbf0)" style="fill: #6e5c99; stroke: #333333; stroke-width: 2.5; stroke-linejoin: miter"/>
   </g>
   <g id="patch_31">
    <path d="M 108.326875 335.52 
L 108.326875 335.52 
L 108.326875 335.52 
L 108.326875 335.52 
z
" clip-path="url(#pc641c2cbf0)" style="fill: #a3a0c3; stroke: #333333; stroke-width: 2.5; stroke-linejoin: miter"/>
   </g>
   <g id="patch_32">
    <path d="M 108.326875 335.52 
L 108.326875 335.52 
L 108.326875 335.52 
L 108.326875 335.52 
z
" clip-path="url(#pc641c2cbf0)" style="fill: #dddde9; stroke: #333333; stroke-width: 2.5; stroke-linejoin: miter"/>
   </g>
   <g id="line2d_18">
    <path d="M 80.704475 254.574275 
L 82.701275 254.574275 
M 81.702875 254.574275 
L 81.702875 200.902387 
M 80.704475 200.902387 
L 82.701275 200.902387 
" clip-path="url(#pc641c2cbf0)" style="fill: none; stroke: #333333; stroke-width: 2; stroke-linecap: round"/>
   </g>
   <g id="line2d_19">
    <path d="M 180.544475 177.684563 
L 182.541275 177.684563 
M 181.542875 177.684563 
L 181.542875 67.346776 
M 180.544475 67.346776 
L 182.541275 67.346776 
" clip-path="url(#pc641c2cbf0)" style="fill: none; stroke: #333333; stroke-width: 2; stroke-linecap: round"/>
   </g>
   <g id="line2d_20">
    <path d="M 280.384475 267.308426 
L 282.381275 267.308426 
M 281.382875 267.308426 
L 281.382875 206.791675 
M 280.384475 206.791675 
L 282.381275 206.791675 
" clip-path="url(#pc641c2cbf0)" style="fill: none; stroke: #333333; stroke-width: 2; stroke-linecap: round"/>
   </g>
   <g id="line2d_21">
    <path d="M 380.224475 241.960742 
L 382.221275 241.960742 
M 381.222875 241.960742 
L 381.222875 216.634592 
M 380.224475 216.634592 
L 382.221275 216.634592 
" clip-path="url(#pc641c2cbf0)" style="fill: none; stroke: #333333; stroke-width: 2; stroke-linecap: round"/>
   </g>
   <g id="line2d_22">
    <path d="M 480.064475 299.427695 
L 482.061275 299.427695 
M 481.062875 299.427695 
L 481.062875 230.949544 
M 480.064475 230.949544 
L 482.061275 230.949544 
" clip-path="url(#pc641c2cbf0)" style="fill: none; stroke: #333333; stroke-width: 2; stroke-linecap: round"/>
   </g>
   <g id="line2d_23">
    <path d="M 579.904475 295.19313 
L 581.901275 295.19313 
M 580.902875 295.19313 
L 580.902875 245.687767 
M 579.904475 245.687767 
L 581.901275 245.687767 
" clip-path="url(#pc641c2cbf0)" style="fill: none; stroke: #333333; stroke-width: 2; stroke-linecap: round"/>
   </g>
   <g id="line2d_24">
    <path d="M 679.744475 280.547676 
L 681.741275 280.547676 
M 680.742875 280.547676 
L 680.742875 245.584589 
M 679.744475 245.584589 
L 681.741275 245.584589 
" clip-path="url(#pc641c2cbf0)" style="fill: none; stroke: #333333; stroke-width: 2; stroke-linecap: round"/>
   </g>
   <g id="line2d_25">
    <path d="M 779.584475 297.683499 
L 781.581275 297.683499 
M 780.582875 297.683499 
L 780.582875 249.121112 
M 779.584475 249.121112 
L 781.581275 249.121112 
" clip-path="url(#pc641c2cbf0)" style="fill: none; stroke: #333333; stroke-width: 2; stroke-linecap: round"/>
   </g>
   <g id="line2d_26">
    <path d="M 879.424475 314.90912 
L 881.421275 314.90912 
M 880.422875 314.90912 
L 880.422875 277.844558 
M 879.424475 277.844558 
L 881.421275 277.844558 
" clip-path="url(#pc641c2cbf0)" style="fill: none; stroke: #333333; stroke-width: 2; stroke-linecap: round"/>
   </g>
   <g id="line2d_27">
    <path d="M 107.328475 167.066681 
L 109.325275 167.066681 
M 108.326875 167.066681 
L 108.326875 137.66716 
M 107.328475 137.66716 
L 109.325275 137.66716 
" clip-path="url(#pc641c2cbf0)" style="fill: none; stroke: #333333; stroke-width: 2; stroke-linecap: round"/>
   </g>
   <g id="line2d_28">
    <path d="M 207.168475 157.622854 
L 209.165275 157.622854 
M 208.166875 157.622854 
L 208.166875 121.293998 
M 207.168475 121.293998 
L 209.165275 121.293998 
" clip-path="url(#pc641c2cbf0)" style="fill: none; stroke: #333333; stroke-width: 2; stroke-linecap: round"/>
   </g>
   <g id="line2d_29">
    <path d="M 307.008475 246.969794 
L 309.005275 246.969794 
M 308.006875 246.969794 
L 308.006875 238.888245 
M 307.008475 238.888245 
L 309.005275 238.888245 
" clip-path="url(#pc641c2cbf0)" style="fill: none; stroke: #333333; stroke-width: 2; stroke-linecap: round"/>
   </g>
   <g id="line2d_30">
    <path d="M 406.848475 255.595699 
L 408.845275 255.595699 
M 407.846875 255.595699 
L 407.846875 237.199022 
M 406.848475 237.199022 
L 408.845275 237.199022 
" clip-path="url(#pc641c2cbf0)" style="fill: none; stroke: #333333; stroke-width: 2; stroke-linecap: round"/>
   </g>
   <g id="line2d_31">
    <path d="M 506.688475 251.75671 
L 508.685275 251.75671 
M 507.686875 251.75671 
L 507.686875 196.110812 
M 506.688475 196.110812 
L 508.685275 196.110812 
" clip-path="url(#pc641c2cbf0)" style="fill: none; stroke: #333333; stroke-width: 2; stroke-linecap: round"/>
   </g>
   <g id="line2d_32">
    <path d="M 606.528475 293.139934 
L 608.525275 293.139934 
M 607.526875 293.139934 
L 607.526875 272.834021 
M 606.528475 272.834021 
L 608.525275 272.834021 
" clip-path="url(#pc641c2cbf0)" style="fill: none; stroke: #333333; stroke-width: 2; stroke-linecap: round"/>
   </g>
   <g id="line2d_33">
    <path d="M 706.368475 298.093302 
L 708.365275 298.093302 
M 707.366875 298.093302 
L 707.366875 284.518561 
M 706.368475 284.518561 
L 708.365275 284.518561 
" clip-path="url(#pc641c2cbf0)" style="fill: none; stroke: #333333; stroke-width: 2; stroke-linecap: round"/>
   </g>
   <g id="line2d_34">
    <path d="M 806.208475 311.817679 
L 808.205275 311.817679 
M 807.206875 311.817679 
L 807.206875 305.655348 
M 806.208475 305.655348 
L 808.205275 305.655348 
" clip-path="url(#pc641c2cbf0)" style="fill: none; stroke: #333333; stroke-width: 2; stroke-linecap: round"/>
   </g>
   <g id="line2d_35">
    <path d="M 906.048475 303.354083 
L 908.045275 303.354083 
M 907.046875 303.354083 
L 907.046875 290.568221 
M 906.048475 290.568221 
L 908.045275 290.568221 
" clip-path="url(#pc641c2cbf0)" style="fill: none; stroke: #333333; stroke-width: 2; stroke-linecap: round"/>
   </g>
   <g id="line2d_36">
    <path d="M 133.952475 174.961462 
L 135.949275 174.961462 
M 134.950875 174.961462 
L 134.950875 54.713787 
M 133.952475 54.713787 
L 135.949275 54.713787 
" clip-path="url(#pc641c2cbf0)" style="fill: none; stroke: #333333; stroke-width: 2; stroke-linecap: round"/>
   </g>
   <g id="line2d_37">
    <path d="M 233.792475 256.883609 
L 235.789275 256.883609 
M 234.790875 256.883609 
L 234.790875 236.904394 
M 233.792475 236.904394 
L 235.789275 236.904394 
" clip-path="url(#pc641c2cbf0)" style="fill: none; stroke: #333333; stroke-width: 2; stroke-linecap: round"/>
   </g>
   <g id="line2d_38">
    <path d="M 333.632475 236.562823 
L 335.629275 236.562823 
M 334.630875 236.562823 
L 334.630875 190.547792 
M 333.632475 190.547792 
L 335.629275 190.547792 
" clip-path="url(#pc641c2cbf0)" style="fill: none; stroke: #333333; stroke-width: 2; stroke-linecap: round"/>
   </g>
   <g id="line2d_39">
    <path d="M 433.472475 245.269857 
L 435.469275 245.269857 
M 434.470875 245.269857 
L 434.470875 219.854702 
M 433.472475 219.854702 
L 435.469275 219.854702 
" clip-path="url(#pc641c2cbf0)" style="fill: none; stroke: #333333; stroke-width: 2; stroke-linecap: round"/>
   </g>
   <g id="line2d_40">
    <path d="M 533.312475 268.30451 
L 535.309275 268.30451 
M 534.310875 268.30451 
L 534.310875 236.946165 
M 533.312475 236.946165 
L 535.309275 236.946165 
" clip-path="url(#pc641c2cbf0)" style="fill: none; stroke: #333333; stroke-width: 2; stroke-linecap: round"/>
   </g>
   <g id="line2d_41">
    <path d="M 633.152475 266.508633 
L 635.149275 266.508633 
M 634.150875 266.508633 
L 634.150875 254.480836 
M 633.152475 254.480836 
L 635.149275 254.480836 
" clip-path="url(#pc641c2cbf0)" style="fill: none; stroke: #333333; stroke-width: 2; stroke-linecap: round"/>
   </g>
   <g id="line2d_42">
    <path d="M 732.992475 293.873491 
L 734.989275 293.873491 
M 733.990875 293.873491 
L 733.990875 273.372668 
M 732.992475 273.372668 
L 734.989275 273.372668 
" clip-path="url(#pc641c2cbf0)" style="fill: none; stroke: #333333; stroke-width: 2; stroke-linecap: round"/>
   </g>
   <g id="line2d_43">
    <path d="M 832.832475 301.763737 
L 834.829275 301.763737 
M 833.830875 301.763737 
L 833.830875 280.217819 
M 832.832475 280.217819 
L 834.829275 280.217819 
" clip-path="url(#pc641c2cbf0)" style="fill: none; stroke: #333333; stroke-width: 2; stroke-linecap: round"/>
   </g>
   <g id="line2d_44">
    <path d="M 932.672475 302.050557 
L 934.669275 302.050557 
M 933.670875 302.050557 
L 933.670875 276.935282 
M 932.672475 276.935282 
L 934.669275 276.935282 
" clip-path="url(#pc641c2cbf0)" style="fill: none; stroke: #333333; stroke-width: 2; stroke-linecap: round"/>
   </g>
   <g id="patch_33">
    <path d="M 58.406875 335.52 
L 58.406875 7.2 
" style="fill: none; stroke: #262626; stroke-width: 1.25; stroke-linejoin: miter; stroke-linecap: square"/>
   </g>
   <g id="patch_34">
    <path d="M 956.966875 335.52 
L 956.966875 7.2 
" style="fill: none; stroke: #262626; stroke-width: 1.25; stroke-linejoin: miter; stroke-linecap: square"/>
   </g>
   <g id="patch_35">
    <path d="M 58.406875 335.52 
L 956.966875 335.52 
" style="fill: none; stroke: #262626; stroke-width: 1.25; stroke-linejoin: miter; stroke-linecap: square"/>
   </g>
   <g id="patch_36">
    <path d="M 58.406875 7.2 
L 956.966875 7.2 
" style="fill: none; stroke: #262626; stroke-width: 1.25; stroke-linejoin: miter; stroke-linecap: square"/>
   </g>
   <g id="PathCollection_1">
    <path d="M 80.202875 206.957952 
L 83.202875 206.957952 
L 83.202875 203.957952 
L 80.202875 203.957952 
z
" clip-path="url(#pc641c2cbf0)" style="fill: #1f77b4; stroke: #333333; stroke-width: 2.5"/>
    <path d="M 80.202875 282.665542 
L 83.202875 282.665542 
L 83.202875 279.665542 
L 80.202875 279.665542 
z
" clip-path="url(#pc641c2cbf0)" style="fill: #1f77b4; stroke: #333333; stroke-width: 2.5"/>
    <path d="M 80.202875 198.091498 
L 83.202875 198.091498 
L 83.202875 195.091498 
L 80.202875 195.091498 
z
" clip-path="url(#pc641c2cbf0)" style="fill: #1f77b4; stroke: #333333; stroke-width: 2.5"/>
   </g>
   <g id="PathCollection_2">
    <path d="M 106.826875 126.284401 
L 109.826875 126.284401 
L 109.826875 123.284401 
L 106.826875 123.284401 
z
" clip-path="url(#pc641c2cbf0)" style="fill: #ff7f0e; stroke: #333333; stroke-width: 2.5"/>
    <path d="M 106.826875 176.470235 
L 109.826875 176.470235 
L 109.826875 173.470235 
L 106.826875 173.470235 
z
" clip-path="url(#pc641c2cbf0)" style="fill: #ff7f0e; stroke: #333333; stroke-width: 2.5"/>
    <path d="M 106.826875 158.846126 
L 109.826875 158.846126 
L 109.826875 155.846126 
L 106.826875 155.846126 
z
" clip-path="url(#pc641c2cbf0)" style="fill: #ff7f0e; stroke: #333333; stroke-width: 2.5"/>
   </g>
   <g id="PathCollection_3">
    <path d="M 133.450875 95.285832 
L 136.450875 95.285832 
L 136.450875 92.285832 
L 133.450875 92.285832 
z
" clip-path="url(#pc641c2cbf0)" style="fill: #279e68; stroke: #333333; stroke-width: 2.5"/>
    <path d="M 133.450875 24.334286 
L 136.450875 24.334286 
L 136.450875 21.334286 
L 133.450875 21.334286 
z
" clip-path="url(#pc641c2cbf0)" style="fill: #279e68; stroke: #333333; stroke-width: 2.5"/>
    <path d="M 133.450875 229.392756 
L 136.450875 229.392756 
L 136.450875 226.392756 
L 133.450875 226.392756 
z
" clip-path="url(#pc641c2cbf0)" style="fill: #279e68; stroke: #333333; stroke-width: 2.5"/>
   </g>
   <g id="PathCollection_4">
    <path d="M 180.042875 57.879611 
L 183.042875 57.879611 
L 183.042875 54.879611 
L 180.042875 54.879611 
z
" clip-path="url(#pc641c2cbf0)" style="fill: #1f77b4; stroke: #333333; stroke-width: 2.5"/>
    <path d="M 180.042875 233.571193 
L 183.042875 233.571193 
L 183.042875 230.571193 
L 180.042875 230.571193 
z
" clip-path="url(#pc641c2cbf0)" style="fill: #1f77b4; stroke: #333333; stroke-width: 2.5"/>
    <path d="M 180.042875 80.596204 
L 183.042875 80.596204 
L 183.042875 77.596204 
L 180.042875 77.596204 
z
" clip-path="url(#pc641c2cbf0)" style="fill: #1f77b4; stroke: #333333; stroke-width: 2.5"/>
   </g>
   <g id="PathCollection_5">
    <path d="M 206.666875 143.719361 
L 209.666875 143.719361 
L 209.666875 140.719361 
L 206.666875 140.719361 
z
" clip-path="url(#pc641c2cbf0)" style="fill: #ff7f0e; stroke: #333333; stroke-width: 2.5"/>
    <path d="M 206.666875 170.948682 
L 209.666875 170.948682 
L 209.666875 167.948682 
L 206.666875 167.948682 
z
" clip-path="url(#pc641c2cbf0)" style="fill: #ff7f0e; stroke: #333333; stroke-width: 2.5"/>
    <path d="M 206.666875 108.207235 
L 209.666875 108.207235 
L 209.666875 105.207235 
L 206.666875 105.207235 
z
" clip-path="url(#pc641c2cbf0)" style="fill: #ff7f0e; stroke: #333333; stroke-width: 2.5"/>
   </g>
   <g id="PathCollection_6">
    <path d="M 233.290875 228.414794 
L 236.290875 228.414794 
L 236.290875 225.414794 
L 233.290875 225.414794 
z
" clip-path="url(#pc641c2cbf0)" style="fill: #279e68; stroke: #333333; stroke-width: 2.5"/>
    <path d="M 233.290875 258.39789 
L 236.290875 258.39789 
L 236.290875 255.39789 
L 233.290875 255.39789 
z
" clip-path="url(#pc641c2cbf0)" style="fill: #279e68; stroke: #333333; stroke-width: 2.5"/>
    <path d="M 227.515953 258.369322 
L 230.515953 258.369322 
L 230.515953 255.369322 
L 227.515953 255.369322 
z
" clip-path="url(#pc641c2cbf0)" style="fill: #279e68; stroke: #333333; stroke-width: 2.5"/>
   </g>
   <g id="PathCollection_7">
    <path d="M 279.882875 257.902834 
L 282.882875 257.902834 
L 282.882875 254.902834 
L 279.882875 254.902834 
z
" clip-path="url(#pc641c2cbf0)" style="fill: #1f77b4; stroke: #333333; stroke-width: 2.5"/>
    <path d="M 279.882875 179.216735 
L 282.882875 179.216735 
L 282.882875 176.216735 
L 279.882875 176.216735 
z
" clip-path="url(#pc641c2cbf0)" style="fill: #1f77b4; stroke: #333333; stroke-width: 2.5"/>
    <path d="M 279.882875 278.530584 
L 282.882875 278.530584 
L 282.882875 275.530584 
L 279.882875 275.530584 
z
" clip-path="url(#pc641c2cbf0)" style="fill: #1f77b4; stroke: #333333; stroke-width: 2.5"/>
   </g>
   <g id="PathCollection_8">
    <path d="M 301.328381 239.232618 
L 304.328381 239.232618 
L 304.328381 236.232618 
L 301.328381 236.232618 
z
" clip-path="url(#pc641c2cbf0)" style="fill: #ff7f0e; stroke: #333333; stroke-width: 2.5"/>
    <path d="M 306.506875 241.667031 
L 309.506875 241.667031 
L 309.506875 238.667031 
L 306.506875 238.667031 
z
" clip-path="url(#pc641c2cbf0)" style="fill: #ff7f0e; stroke: #333333; stroke-width: 2.5"/>
    <path d="M 306.506875 252.38741 
L 309.506875 252.38741 
L 309.506875 249.38741 
L 306.506875 249.38741 
z
" clip-path="url(#pc641c2cbf0)" style="fill: #ff7f0e; stroke: #333333; stroke-width: 2.5"/>
   </g>
   <g id="PathCollection_9">
    <path d="M 333.130875 229.21102 
L 336.130875 229.21102 
L 336.130875 226.21102 
L 333.130875 226.21102 
z
" clip-path="url(#pc641c2cbf0)" style="fill: #279e68; stroke: #333333; stroke-width: 2.5"/>
    <path d="M 333.130875 245.895114 
L 336.130875 245.895114 
L 336.130875 242.895114 
L 333.130875 242.895114 
z
" clip-path="url(#pc641c2cbf0)" style="fill: #279e68; stroke: #333333; stroke-width: 2.5"/>
    <path d="M 333.130875 170.059789 
L 336.130875 170.059789 
L 336.130875 167.059789 
L 333.130875 167.059789 
z
" clip-path="url(#pc641c2cbf0)" style="fill: #279e68; stroke: #333333; stroke-width: 2.5"/>
   </g>
   <g id="PathCollection_10">
    <path d="M 379.722875 244.755767 
L 382.722875 244.755767 
L 382.722875 241.755767 
L 379.722875 241.755767 
z
" clip-path="url(#pc641c2cbf0)" style="fill: #1f77b4; stroke: #333333; stroke-width: 2.5"/>
    <path d="M 379.722875 205.517279 
L 382.722875 205.517279 
L 382.722875 202.517279 
L 379.722875 202.517279 
z
" clip-path="url(#pc641c2cbf0)" style="fill: #1f77b4; stroke: #333333; stroke-width: 2.5"/>
    <path d="M 374.654246 242.119955 
L 377.654246 242.119955 
L 377.654246 239.119955 
L 374.654246 239.119955 
z
" clip-path="url(#pc641c2cbf0)" style="fill: #1f77b4; stroke: #333333; stroke-width: 2.5"/>
   </g>
   <g id="PathCollection_11">
    <path d="M 406.346875 246.813035 
L 409.346875 246.813035 
L 409.346875 243.813035 
L 406.346875 243.813035 
z
" clip-path="url(#pc641c2cbf0)" style="fill: #ff7f0e; stroke: #333333; stroke-width: 2.5"/>
    <path d="M 406.346875 232.535232 
L 409.346875 232.535232 
L 409.346875 229.535232 
L 406.346875 229.535232 
z
" clip-path="url(#pc641c2cbf0)" style="fill: #ff7f0e; stroke: #333333; stroke-width: 2.5"/>
    <path d="M 406.346875 264.343814 
L 409.346875 264.343814 
L 409.346875 261.343814 
L 406.346875 261.343814 
z
" clip-path="url(#pc641c2cbf0)" style="fill: #ff7f0e; stroke: #333333; stroke-width: 2.5"/>
   </g>
   <g id="PathCollection_12">
    <path d="M 432.970875 240.039691 
L 435.970875 240.039691 
L 435.970875 237.039691 
L 432.970875 237.039691 
z
" clip-path="url(#pc641c2cbf0)" style="fill: #279e68; stroke: #333333; stroke-width: 2.5"/>
    <path d="M 432.970875 252.46634 
L 435.970875 252.46634 
L 435.970875 249.46634 
L 432.970875 249.46634 
z
" clip-path="url(#pc641c2cbf0)" style="fill: #279e68; stroke: #333333; stroke-width: 2.5"/>
    <path d="M 432.970875 209.680807 
L 435.970875 209.680807 
L 435.970875 206.680807 
L 432.970875 206.680807 
z
" clip-path="url(#pc641c2cbf0)" style="fill: #279e68; stroke: #333333; stroke-width: 2.5"/>
   </g>
   <g id="PathCollection_13">
    <path d="M 479.562875 204.84503 
L 482.562875 204.84503 
L 482.562875 201.84503 
L 479.562875 201.84503 
z
" clip-path="url(#pc641c2cbf0)" style="fill: #1f77b4; stroke: #333333; stroke-width: 2.5"/>
    <path d="M 479.562875 272.145324 
L 482.562875 272.145324 
L 482.562875 269.145324 
L 479.562875 269.145324 
z
" clip-path="url(#pc641c2cbf0)" style="fill: #1f77b4; stroke: #333333; stroke-width: 2.5"/>
    <path d="M 479.562875 323.075504 
L 482.562875 323.075504 
L 482.562875 320.075504 
L 479.562875 320.075504 
z
" clip-path="url(#pc641c2cbf0)" style="fill: #1f77b4; stroke: #333333; stroke-width: 2.5"/>
   </g>
   <g id="PathCollection_14">
    <path d="M 506.186875 280.924912 
L 509.186875 280.924912 
L 509.186875 277.924912 
L 506.186875 277.924912 
z
" clip-path="url(#pc641c2cbf0)" style="fill: #ff7f0e; stroke: #333333; stroke-width: 2.5"/>
    <path d="M 506.186875 194.09673 
L 509.186875 194.09673 
L 509.186875 191.09673 
L 506.186875 191.09673 
z
" clip-path="url(#pc641c2cbf0)" style="fill: #ff7f0e; stroke: #333333; stroke-width: 2.5"/>
    <path d="M 506.186875 201.279641 
L 509.186875 201.279641 
L 509.186875 198.279641 
L 506.186875 198.279641 
z
" clip-path="url(#pc641c2cbf0)" style="fill: #ff7f0e; stroke: #333333; stroke-width: 2.5"/>
   </g>
   <g id="PathCollection_15">
    <path d="M 527.838247 268.385332 
L 530.838247 268.385332 
L 530.838247 265.385332 
L 527.838247 265.385332 
z
" clip-path="url(#pc641c2cbf0)" style="fill: #279e68; stroke: #333333; stroke-width: 2.5"/>
    <path d="M 532.810875 222.808592 
L 535.810875 222.808592 
L 535.810875 219.808592 
L 532.810875 219.808592 
z
" clip-path="url(#pc641c2cbf0)" style="fill: #279e68; stroke: #333333; stroke-width: 2.5"/>
    <path d="M 532.810875 271.182089 
L 535.810875 271.182089 
L 535.810875 268.182089 
L 532.810875 268.182089 
z
" clip-path="url(#pc641c2cbf0)" style="fill: #279e68; stroke: #333333; stroke-width: 2.5"/>
   </g>
   <g id="PathCollection_16">
    <path d="M 579.402875 308.612946 
L 582.402875 308.612946 
L 582.402875 305.612946 
L 579.402875 305.612946 
z
" clip-path="url(#pc641c2cbf0)" style="fill: #1f77b4; stroke: #333333; stroke-width: 2.5"/>
    <path d="M 579.402875 224.804345 
L 582.402875 224.804345 
L 582.402875 221.804345 
L 579.402875 221.804345 
z
" clip-path="url(#pc641c2cbf0)" style="fill: #1f77b4; stroke: #333333; stroke-width: 2.5"/>
    <path d="M 579.402875 282.404055 
L 582.402875 282.404055 
L 582.402875 279.404055 
L 579.402875 279.404055 
z
" clip-path="url(#pc641c2cbf0)" style="fill: #1f77b4; stroke: #333333; stroke-width: 2.5"/>
   </g>
   <g id="PathCollection_17">
    <path d="M 606.026875 264.247995 
L 609.026875 264.247995 
L 609.026875 261.247995 
L 606.026875 261.247995 
z
" clip-path="url(#pc641c2cbf0)" style="fill: #ff7f0e; stroke: #333333; stroke-width: 2.5"/>
    <path d="M 606.026875 296.033089 
L 609.026875 296.033089 
L 609.026875 293.033089 
L 606.026875 293.033089 
z
" clip-path="url(#pc641c2cbf0)" style="fill: #ff7f0e; stroke: #333333; stroke-width: 2.5"/>
    <path d="M 601.089751 293.179849 
L 604.089751 293.179849 
L 604.089751 290.179849 
L 601.089751 290.179849 
z
" clip-path="url(#pc641c2cbf0)" style="fill: #ff7f0e; stroke: #333333; stroke-width: 2.5"/>
   </g>
   <g id="PathCollection_18">
    <path d="M 632.650875 260.104583 
L 635.650875 260.104583 
L 635.650875 257.104583 
L 632.650875 257.104583 
z
" clip-path="url(#pc641c2cbf0)" style="fill: #279e68; stroke: #333333; stroke-width: 2.5"/>
    <path d="M 632.650875 273.226764 
L 635.650875 273.226764 
L 635.650875 270.226764 
L 632.650875 270.226764 
z
" clip-path="url(#pc641c2cbf0)" style="fill: #279e68; stroke: #333333; stroke-width: 2.5"/>
    <path d="M 632.650875 252.652857 
L 635.650875 252.652857 
L 635.650875 249.652857 
L 632.650875 249.652857 
z
" clip-path="url(#pc641c2cbf0)" style="fill: #279e68; stroke: #333333; stroke-width: 2.5"/>
   </g>
   <g id="PathCollection_19">
    <path d="M 679.242875 286.309887 
L 682.242875 286.309887 
L 682.242875 283.309887 
L 679.242875 283.309887 
z
" clip-path="url(#pc641c2cbf0)" style="fill: #1f77b4; stroke: #333333; stroke-width: 2.5"/>
    <path d="M 679.242875 277.405433 
L 682.242875 277.405433 
L 682.242875 274.405433 
L 679.242875 274.405433 
z
" clip-path="url(#pc641c2cbf0)" style="fill: #1f77b4; stroke: #333333; stroke-width: 2.5"/>
    <path d="M 679.242875 229.983078 
L 682.242875 229.983078 
L 682.242875 226.983078 
L 679.242875 226.983078 
z
" clip-path="url(#pc641c2cbf0)" style="fill: #1f77b4; stroke: #333333; stroke-width: 2.5"/>
   </g>
   <g id="PathCollection_20">
    <path d="M 705.866875 280.924912 
L 708.866875 280.924912 
L 708.866875 277.924912 
L 705.866875 277.924912 
z
" clip-path="url(#pc641c2cbf0)" style="fill: #ff7f0e; stroke: #333333; stroke-width: 2.5"/>
    <path d="M 705.866875 293.059945 
L 708.866875 293.059945 
L 708.866875 290.059945 
L 705.866875 290.059945 
z
" clip-path="url(#pc641c2cbf0)" style="fill: #ff7f0e; stroke: #333333; stroke-width: 2.5"/>
    <path d="M 705.866875 304.432936 
L 708.866875 304.432936 
L 708.866875 301.432936 
L 705.866875 301.432936 
z
" clip-path="url(#pc641c2cbf0)" style="fill: #ff7f0e; stroke: #333333; stroke-width: 2.5"/>
   </g>
   <g id="PathCollection_21">
    <path d="M 732.490875 286.220791 
L 735.490875 286.220791 
L 735.490875 283.220791 
L 732.490875 283.220791 
z
" clip-path="url(#pc641c2cbf0)" style="fill: #279e68; stroke: #333333; stroke-width: 2.5"/>
    <path d="M 732.490875 302.302988 
L 735.490875 302.302988 
L 735.490875 299.302988 
L 732.490875 299.302988 
z
" clip-path="url(#pc641c2cbf0)" style="fill: #279e68; stroke: #333333; stroke-width: 2.5"/>
    <path d="M 732.490875 266.84546 
L 735.490875 266.84546 
L 735.490875 263.84546 
L 732.490875 263.84546 
z
" clip-path="url(#pc641c2cbf0)" style="fill: #279e68; stroke: #333333; stroke-width: 2.5"/>
   </g>
   <g id="PathCollection_22">
    <path d="M 779.082875 321.994781 
L 782.082875 321.994781 
L 782.082875 318.994781 
L 779.082875 318.994781 
z
" clip-path="url(#pc641c2cbf0)" style="fill: #1f77b4; stroke: #333333; stroke-width: 2.5"/>
    <path d="M 779.082875 261.625106 
L 782.082875 261.625106 
L 782.082875 258.625106 
L 779.082875 258.625106 
z
" clip-path="url(#pc641c2cbf0)" style="fill: #1f77b4; stroke: #333333; stroke-width: 2.5"/>
    <path d="M 779.082875 241.087029 
L 782.082875 241.087029 
L 782.082875 238.087029 
L 779.082875 238.087029 
z
" clip-path="url(#pc641c2cbf0)" style="fill: #1f77b4; stroke: #333333; stroke-width: 2.5"/>
   </g>
   <g id="PathCollection_23">
    <path d="M 805.706875 307.456373 
L 808.706875 307.456373 
L 808.706875 304.456373 
L 805.706875 304.456373 
z
" clip-path="url(#pc641c2cbf0)" style="fill: #ff7f0e; stroke: #333333; stroke-width: 2.5"/>
    <path d="M 799.965488 306.863827 
L 802.965488 306.863827 
L 802.965488 303.863827 
L 799.965488 303.863827 
z
" clip-path="url(#pc641c2cbf0)" style="fill: #ff7f0e; stroke: #333333; stroke-width: 2.5"/>
    <path d="M 805.706875 316.389341 
L 808.706875 316.389341 
L 808.706875 313.389341 
L 805.706875 313.389341 
z
" clip-path="url(#pc641c2cbf0)" style="fill: #ff7f0e; stroke: #333333; stroke-width: 2.5"/>
   </g>
   <g id="PathCollection_24">
    <path d="M 832.330875 292.272107 
L 835.330875 292.272107 
L 835.330875 289.272107 
L 832.330875 289.272107 
z
" clip-path="url(#pc641c2cbf0)" style="fill: #279e68; stroke: #333333; stroke-width: 2.5"/>
    <path d="M 832.330875 311.258465 
L 835.330875 311.258465 
L 835.330875 308.258465 
L 832.330875 308.258465 
z
" clip-path="url(#pc641c2cbf0)" style="fill: #279e68; stroke: #333333; stroke-width: 2.5"/>
    <path d="M 832.330875 273.941762 
L 835.330875 273.941762 
L 835.330875 270.941762 
L 832.330875 270.941762 
z
" clip-path="url(#pc641c2cbf0)" style="fill: #279e68; stroke: #333333; stroke-width: 2.5"/>
   </g>
   <g id="PathCollection_25">
    <path d="M 878.922875 309.317253 
L 881.922875 309.317253 
L 881.922875 306.317253 
L 878.922875 306.317253 
z
" clip-path="url(#pc641c2cbf0)" style="fill: #1f77b4; stroke: #333333; stroke-width: 2.5"/>
    <path d="M 878.922875 261.625106 
L 881.922875 261.625106 
L 881.922875 258.625106 
L 878.922875 258.625106 
z
" clip-path="url(#pc641c2cbf0)" style="fill: #1f77b4; stroke: #333333; stroke-width: 2.5"/>
    <path d="M 878.922875 322.688156 
L 881.922875 322.688156 
L 881.922875 319.688156 
L 878.922875 319.688156 
z
" clip-path="url(#pc641c2cbf0)" style="fill: #1f77b4; stroke: #333333; stroke-width: 2.5"/>
   </g>
   <g id="PathCollection_26">
    <path d="M 905.546875 308.972456 
L 908.546875 308.972456 
L 908.546875 305.972456 
L 905.546875 305.972456 
z
" clip-path="url(#pc641c2cbf0)" style="fill: #ff7f0e; stroke: #333333; stroke-width: 2.5"/>
    <path d="M 905.546875 286.90129 
L 908.546875 286.90129 
L 908.546875 283.90129 
L 905.546875 283.90129 
z
" clip-path="url(#pc641c2cbf0)" style="fill: #ff7f0e; stroke: #333333; stroke-width: 2.5"/>
    <path d="M 905.546875 299.509711 
L 908.546875 299.509711 
L 908.546875 296.509711 
L 905.546875 296.509711 
z
" clip-path="url(#pc641c2cbf0)" style="fill: #ff7f0e; stroke: #333333; stroke-width: 2.5"/>
   </g>
   <g id="PathCollection_27">
    <path d="M 932.170875 298.641914 
L 935.170875 298.641914 
L 935.170875 295.641914 
L 932.170875 295.641914 
z
" clip-path="url(#pc641c2cbf0)" style="fill: #279e68; stroke: #333333; stroke-width: 2.5"/>
    <path d="M 932.170875 307.885623 
L 935.170875 307.885623 
L 935.170875 304.885623 
L 932.170875 304.885623 
z
" clip-path="url(#pc641c2cbf0)" style="fill: #279e68; stroke: #333333; stroke-width: 2.5"/>
    <path d="M 932.170875 266.451221 
L 935.170875 266.451221 
L 935.170875 263.451221 
L 932.170875 263.451221 
z
" clip-path="url(#pc641c2cbf0)" style="fill: #279e68; stroke: #333333; stroke-width: 2.5"/>
   </g>
   <g id="line2d_45"/>
   <g id="line2d_46"/>
   <g id="line2d_47"/>
   <g id="legend_1">
    <g id="patch_37">
     <path d="M 825.014375 33.0525 
L 833.014375 33.0525 
L 833.014375 21.8525 
L 825.014375 21.8525 
z
" style="fill: #6e5c99; stroke: #333333; stroke-width: 2.5; stroke-linejoin: miter"/>
    </g>
    <g id="text_19">
     <!-- Thoracic Aorta -->
     <g style="fill: #333333" transform="translate(839.414375 33.0525) scale(0.16 -0.16)">
      <defs>
       <path id="ArialMT-54" d="M 1659 0 
L 1659 4041 
L 150 4041 
L 150 4581 
L 3781 4581 
L 3781 4041 
L 2266 4041 
L 2266 0 
L 1659 0 
z
" transform="scale(0.015625)"/>
       <path id="ArialMT-20" transform="scale(0.015625)"/>
      </defs>
      <use xlink:href="#ArialMT-54"/>
      <use xlink:href="#ArialMT-68" transform="translate(61.083984 0)"/>
      <use xlink:href="#ArialMT-6f" transform="translate(116.699219 0)"/>
      <use xlink:href="#ArialMT-72" transform="translate(172.314453 0)"/>
      <use xlink:href="#ArialMT-61" transform="translate(205.615234 0)"/>
      <use xlink:href="#ArialMT-63" transform="translate(261.230469 0)"/>
      <use xlink:href="#ArialMT-69" transform="translate(311.230469 0)"/>
      <use xlink:href="#ArialMT-63" transform="translate(333.447266 0)"/>
      <use xlink:href="#ArialMT-20" transform="translate(383.447266 0)"/>
      <use xlink:href="#ArialMT-41" transform="translate(405.730469 0)"/>
      <use xlink:href="#ArialMT-6f" transform="translate(472.429688 0)"/>
      <use xlink:href="#ArialMT-72" transform="translate(528.044922 0)"/>
      <use xlink:href="#ArialMT-74" transform="translate(561.345703 0)"/>
      <use xlink:href="#ArialMT-61" transform="translate(589.128906 0)"/>
     </g>
    </g>
    <g id="patch_38">
     <path d="M 825.014375 55.685 
L 833.014375 55.685 
L 833.014375 44.485 
L 825.014375 44.485 
z
" style="fill: #a3a0c3; stroke: #333333; stroke-width: 2.5; stroke-linejoin: miter"/>
    </g>
    <g id="text_20">
     <!-- Mesentery -->
     <g style="fill: #333333" transform="translate(839.414375 55.685) scale(0.16 -0.16)">
      <use xlink:href="#ArialMT-4d"/>
      <use xlink:href="#ArialMT-65" transform="translate(83.300781 0)"/>
      <use xlink:href="#ArialMT-73" transform="translate(138.916016 0)"/>
      <use xlink:href="#ArialMT-65" transform="translate(188.916016 0)"/>
      <use xlink:href="#ArialMT-6e" transform="translate(244.53125 0)"/>
      <use xlink:href="#ArialMT-74" transform="translate(300.146484 0)"/>
      <use xlink:href="#ArialMT-65" transform="translate(327.929688 0)"/>
      <use xlink:href="#ArialMT-72" transform="translate(383.544922 0)"/>
      <use xlink:href="#ArialMT-79" transform="translate(416.845703 0)"/>
     </g>
    </g>
    <g id="patch_39">
     <path d="M 825.014375 78.505 
L 833.014375 78.505 
L 833.014375 67.305 
L 825.014375 67.305 
z
" style="fill: #dddde9; stroke: #333333; stroke-width: 2.5; stroke-linejoin: miter"/>
    </g>
    <g id="text_21">
     <!-- Kidney -->
     <g style="fill: #333333" transform="translate(839.414375 78.505) scale(0.16 -0.16)">
      <defs>
       <path id="ArialMT-4b" d="M 469 0 
L 469 4581 
L 1075 4581 
L 1075 2309 
L 3350 4581 
L 4172 4581 
L 2250 2725 
L 4256 0 
L 3456 0 
L 1825 2319 
L 1075 1588 
L 1075 0 
L 469 0 
z
" transform="scale(0.015625)"/>
      </defs>
      <use xlink:href="#ArialMT-4b"/>
      <use xlink:href="#ArialMT-69" transform="translate(66.699219 0)"/>
      <use xlink:href="#ArialMT-64" transform="translate(88.916016 0)"/>
      <use xlink:href="#ArialMT-6e" transform="translate(144.53125 0)"/>
      <use xlink:href="#ArialMT-65" transform="translate(200.146484 0)"/>
      <use xlink:href="#ArialMT-79" transform="translate(255.761719 0)"/>
     </g>
    </g>
   </g>
  </g>
 </g>
 <defs>
  <clipPath id="pc641c2cbf0">
   <rect x="58.406875" y="7.2" width="898.56" height="328.32"/>
  </clipPath>
 </defs>
</svg>
